<?xml version="1.0" standalone="no"?><!DOCTYPE svg PUBLIC "-//W3C//DTD SVG 1.1//EN" "http://www.w3.org/Graphics/SVG/1.1/DTD/svg11.dtd"><svg t="1728971246906" class="icon" viewBox="0 0 1024 1024" version="1.1" xmlns="http://www.w3.org/2000/svg" p-id="13256" data-spm-anchor-id="a313x.search_index.0.i0.40213a81SlMAHC" xmlns:xlink="http://www.w3.org/1999/xlink" width="200" height="200"><path d="M118.724638 46.005797c-20.776812 0-38.585507 14.84058-43.037681 35.617391-1.484058 2.968116-1.484058 5.936232-1.484058 8.904348 0 25.228986 20.776812 44.521739 44.521739 44.521739s44.521739-20.776812 44.521739-44.521739-19.292754-44.521739-44.521739-44.521739z m0 74.202899c-16.324638 0-29.681159-13.356522-29.68116-29.68116s13.356522-29.681159 29.68116-29.681159 29.681159 13.356522 29.681159 29.681159-13.356522 29.681159-29.681159 29.68116zM279.002899 62.330435c-14.84058 0-28.197101 11.872464-28.197102 28.197101S264.162319 118.724638 279.002899 118.724638s28.197101-11.872464 28.197101-28.197102-11.872464-28.197101-28.197101-28.197101z m0 41.553623c-5.936232 0-11.872464-5.936232-11.872464-13.356522s5.936232-13.356522 13.356522-13.356522 13.356522 5.936232 13.356521 13.356522c-1.484058 7.42029-7.42029 13.356522-14.840579 13.356522zM635.176812 648.533333c11.872464-20.776812 7.42029-47.489855-10.388406-65.29855-22.26087-22.26087-57.878261-22.26087-80.139131 0-4.452174 4.452174-7.42029 8.904348-10.388405 13.356521-11.872464 20.776812-7.42029 47.489855 10.388405 65.298551 2.968116 2.968116 4.452174 4.452174 7.42029 5.936232 1.484058 1.484058 2.968116 1.484058 4.452174 2.968116 8.904348 4.452174 17.808696 7.42029 26.713044 7.42029 14.84058 0 28.197101-5.936232 40.069565-16.324638 5.936232-4.452174 8.904348-8.904348 11.872464-13.356522z m-20.776812 2.968116c-1.484058 1.484058-4.452174 2.968116-5.936232 4.452174 0 0-1.484058 0-1.484058 1.484058 0 0-1.484058 0-1.484058 1.484058h-1.484058-1.484058c-14.84058 5.936232-31.165217 2.968116-43.037681-7.42029l-1.484058-1.484058c-2.968116-2.968116-4.452174-4.452174-5.936232-7.42029-10.388406-16.324638-7.42029-37.101449 5.936232-51.942029 7.42029-7.42029 19.292754-11.872464 29.68116-11.872463s19.292754 2.968116 28.197101 10.388405l1.484058 1.484058c1.484058 1.484058 2.968116 4.452174 4.452174 5.936232v2.968116c2.968116 4.452174 4.452174 8.904348 4.452174 13.356522 2.968116 11.872464 0 25.228986-8.904348 35.617391-1.484058 1.484058-1.484058 2.968116-2.968116 2.968116zM657.437681 468.962319c1.484058 0 4.452174 1.484058 5.936232 1.484058 8.904348 0 16.324638-5.936232 19.292754-13.356522l60.846376-200.347826c2.968116-10.388406-2.968116-20.776812-13.356521-25.228986-10.388406-2.968116-20.776812 2.968116-25.228986 13.356522L644.081159 445.217391c-2.968116 8.904348 2.968116 20.776812 13.356522 23.744928z m1.484058-20.776812l60.846377-200.347826c0-1.484058 1.484058-2.968116 2.968116-2.968116H727.188406c2.968116 1.484058 4.452174 2.968116 2.968116 5.936232L667.826087 451.153623c-1.484058 2.968116-2.968116 4.452174-5.936232 2.968116-2.968116 0-4.452174-2.968116-2.968116-5.936232zM832.556522 90.527536c0-28.197101-22.26087-50.457971-50.457971-50.457971s-50.457971 22.26087-50.457971 50.457971 22.26087 50.457971 50.457971 50.457971c26.713043 0 50.457971-22.26087 50.457971-50.457971z m-50.457971 35.617392c-19.292754 0-35.617391-16.324638-35.617392-35.617392s16.324638-35.617391 35.617392-35.617391c19.292754 0 35.617391 16.324638 35.617391 35.617391 0 19.292754-16.324638 35.617391-35.617391 35.617392zM710.863768 796.93913c1.484058 0 1.484058 0 0 0 7.42029 5.936232 14.84058 8.904348 22.26087 8.904348h7.42029c5.936232-1.484058 11.872464-4.452174 16.324637-8.904348l1.484058-1.484058c13.356522-13.356522 13.356522-35.617391 0-47.489855l-1.484058-1.484058c-4.452174-4.452174-10.388406-5.936232-16.324637-7.420289h-1.484058-1.484058-2.968116-2.968116c-7.42029 0-16.324638 4.452174-20.776812 10.388405-2.968116 2.968116-5.936232 7.42029-7.42029 11.872464 0 1.484058 0 1.484058-1.484058 2.968116v1.484058c-2.968116 8.904348 0 20.776812 8.904348 31.165217 0-1.484058 0-1.484058 0 0z m10.388406-40.069565l1.484058-1.484058H749.449275s1.484058 0 1.484058 1.484058c2.968116 2.968116 4.452174 4.452174 4.452174 8.904348 1.484058 5.936232 0 13.356522-4.452174 19.292754l-1.484058 1.484058s-1.484058 0-1.484058 1.484058c-5.936232 4.452174-14.84058 4.452174-20.776811 0 0 0-1.484058 0-1.484058-1.484058l-1.484058-1.484058c-11.872464-7.42029-11.872464-20.776812-2.968116-28.197102z" p-id="13257"></path><path d="M955.733333 887.466667h-81.623188v-92.011595c0-31.165217-23.744928-56.394203-54.910145-57.87826-4.452174-13.356522-10.388406-25.228986-19.292754-34.133334l-84.591304-99.431884 96.463768-427.408695c38.585507-8.904348 66.782609-44.521739 66.782609-84.591305 0-48.973913-40.069565-87.55942-87.55942-87.55942H617.368116c-4.452174 0-7.42029 2.968116-7.42029 7.42029v16.324637h-81.623188c-4.452174 0-7.42029 2.968116-7.42029 7.42029v5.936232H326.492754c-13.356522-13.356522-29.681159-22.26087-48.973913-23.744927L120.208696 2.968116C96.463768 1.484058 71.234783 8.904348 53.426087 25.228986 35.617391 43.037681 25.228986 66.782609 25.228986 90.527536c0 25.228986 10.388406 47.489855 28.197101 65.298551 5.936232 5.936232 13.356522 10.388406 22.26087 14.84058v54.910145h-13.356522c-14.84058 0-28.197101 11.872464-28.197102 28.197101 0 13.356522 8.904348 23.744928 20.776812 26.713044v22.260869c0 4.452174 2.968116 7.42029 7.42029 7.42029h13.356522V371.014493c0 4.452174 2.968116 7.42029 7.420289 7.42029H89.043478v13.356521l-56.394203 54.910145c-2.968116 1.484058-2.968116 5.936232-2.968116 8.904348l35.617392 75.686957 2.968116 43.037681c0 4.452174 2.968116 7.42029 7.42029 7.42029h16.324637c4.452174 0 7.42029-2.968116 7.42029-7.42029v-46.005797V523.872464L75.686957 460.057971l19.292753-19.292754H145.437681l19.292754 19.292754-25.228986 63.814493V574.330435c0 4.452174 2.968116 7.42029 7.42029 7.42029H163.246377c4.452174 0 7.42029-2.968116 7.42029-7.42029l2.968116-43.037681 35.617391-75.686957c1.484058-2.968116 0-5.936232-1.484058-8.904348l-56.394203-54.910145v-13.356521h5.936232c4.452174 0 7.42029-2.968116 7.42029-7.42029v-60.846377h13.356522c4.452174 0 7.42029-2.968116 7.420289-7.42029v-22.260869c11.872464-2.968116 20.776812-13.356522 20.776812-26.713044 0-14.84058-11.872464-28.197101-28.197101-28.197101h-14.84058v-50.457971l114.272464-8.904348c19.292754-2.968116 37.101449-11.872464 48.973913-25.228986h194.411594v5.936232c0 4.452174 2.968116 7.42029 7.42029 7.42029h81.623188v16.324638c0 4.452174 2.968116 7.42029 7.42029 7.42029h60.846377l-124.66087 327.976811c-19.292754 4.452174-38.585507 14.84058-53.426087 29.68116-22.26087 22.26087-34.133333 53.426087-32.649275 84.591304 1.484058 31.165217 16.324638 60.846377 40.069565 81.623188l90.527536 75.686957c-1.484058 4.452174-1.484058 10.388406-1.484058 14.84058v92.011594h-81.623188c-23.744928 0-43.037681 19.292754-43.037681 43.037681v86.075362c0 4.452174 2.968116 7.42029 7.42029 7.42029H563.942029c4.452174 0 7.42029-2.968116 7.42029-7.42029v-29.681159h72.71884v29.681159c0 4.452174 2.968116 7.42029 7.42029 7.42029h167.698551c4.452174 0 7.42029-2.968116 7.42029-7.42029v-29.681159h72.71884v29.681159c0 4.452174 2.968116 7.42029 7.42029 7.42029h86.075363c4.452174 0 7.42029-2.968116 7.420289-7.42029v-86.075362c-1.484058-20.776812-20.776812-40.069565-44.521739-40.069565zM87.55942 425.924638l-26.713043 26.713043c-1.484058 2.968116-2.968116 5.936232-1.484058 8.904348l26.713043 68.266667v38.585507h-2.968116l-2.968116-37.101449v-2.968116l-34.133333-72.718841 41.553623-41.553623v11.872464z m48.973913 1.484058H102.4v-48.973913h32.649275v48.973913z m11.872464-63.814493H89.043478v-53.426087h59.362319v53.426087z m10.388406 163.246377v2.968116l-2.968116 37.101449h-2.968116v-38.585507l26.713043-68.266667c1.484058-2.968116 0-5.936232-1.484057-7.42029l-26.713044-26.713043v-13.356522l41.553623 41.553623-34.133333 72.718841z m10.388406-231.513044H69.750725v-14.840579h99.431884v14.840579z m7.42029-54.910145c7.42029 0 13.356522 5.936232 13.356521 13.356522s-5.936232 13.356522-13.356521 13.356522H62.330435c-7.42029 0-13.356522-5.936232-13.356522-13.356522s5.936232-13.356522 13.356522-13.356522h114.272464z m-86.075363-14.840579v-50.457971c7.42029 2.968116 14.84058 2.968116 22.26087 2.968116h7.42029l28.197101-2.968116v48.973913H90.527536z m186.991305-75.686957L118.724638 163.246377c-11.872464 1.484058-22.26087 0-32.649276-4.452174h-1.484058c-7.42029-2.968116-14.84058-7.42029-20.776811-13.356522-14.84058-13.356522-23.744928-32.649275-23.744928-53.426087s8.904348-40.069565 23.744928-53.426087c13.356522-13.356522 31.165217-19.292754 48.973913-19.292753H118.724638l157.310145 13.356521c31.165217 2.968116 54.910145 28.197101 54.910145 59.362319 1.484058 29.681159-23.744928 54.910145-53.426087 57.878261z m244.869565-23.744927H338.365217c5.936232-10.388406 8.904348-22.26087 8.904348-35.617392 0-11.872464-2.968116-25.228986-8.904348-35.617391h184.023189v71.234783z m87.55942 13.356521h-74.202898V41.553623h74.202898v97.947826z m198.863768 673.762319c0-1.484058 0-1.484058 0 0 1.484058-1.484058 1.484058-2.968116 1.484058-2.968116 0-1.484058 1.484058-1.484058 1.484058-2.968116 0 0 0-1.484058 1.484058-1.484058v-1.484058-1.484058-1.484058-1.484058-1.484058-1.484058-1.484058-1.484058-1.484057-1.484058-1.484058-1.484058-1.484058-2.968116-2.968116-1.484058-1.484058-1.484058-1.484058-1.484058-1.484058-1.484058-1.484058-1.484058-1.484058-1.484058-1.484058-1.484058-1.484058-1.484058-2.968116-2.968116c20.776812 2.968116 37.101449 20.776812 37.101449 41.553623v92.011595H609.947826v-92.011595-4.452173l54.910145 46.005797c17.808696 14.84058 38.585507 22.26087 60.846377 22.260869 25.228986 0 48.973913-10.388406 66.782609-28.197101l1.484057-1.484058 1.484058-1.484058v-1.484058s0-1.484058 1.484058-1.484058v-1.484058s0-1.484058 1.484058-1.484058v-1.484058s0-1.484058 1.484058-1.484058V816.231884s0-1.484058 1.484058-1.484058v-1.484058s0-1.484058 1.484058-1.484058v-1.484058l5.936232 2.968116zM624.788406 163.246377V17.808696h166.214493c40.069565 0 72.718841 32.649275 72.71884 72.71884S831.072464 163.246377 791.002899 163.246377H624.788406z m69.750724 14.84058h102.4l-93.495652 409.6-37.101449-44.52174c-20.776812-25.228986-53.426087-40.069565-86.075362-40.069565h-10.388406L694.53913 178.086957z m-178.086956 513.484057c-20.776812-17.808696-34.133333-43.037681-34.133333-71.234782-1.484058-28.197101 8.904348-53.426087 28.197101-72.718841 17.808696-17.808696 43.037681-28.197101 69.750725-28.197101 28.197101 0 56.394203 13.356522 74.202898 34.133333l133.565218 158.794203c8.904348 10.388406 14.84058 22.26087 16.324637 34.133333 5.936232 26.713043-1.484058 54.910145-22.260869 74.202899-14.84058 14.84058-35.617391 23.744928-56.394203 23.744928-19.292754 0-37.101449-7.42029-51.942029-19.292754l-63.814493-54.910145-93.495652-78.655073zM912.695652 1009.15942v-29.681159c0-4.452174-2.968116-7.42029-7.42029-7.42029h-87.55942c-4.452174 0-7.42029 2.968116-7.42029 7.42029v29.681159H657.437681v-29.681159c0-4.452174-2.968116-7.42029-7.42029-7.42029H563.942029c-4.452174 0-7.42029 2.968116-7.42029 7.42029v29.681159h-71.234782v-78.655072c0-16.324638 13.356522-28.197101 28.197101-28.197102h440.765217c16.324638 0 28.197101 13.356522 28.197102 28.197102V1009.15942h-69.750725z" p-id="13258" data-spm-anchor-id="a313x.search_index.0.i1.40213a81SlMAHC" class="selected" fill="#000000"></path></svg>